<svg xmlns="http://www.w3.org/2000/svg" version="1.1" xmlns:xlink="http://www.w3.org/1999/xlink" xmlns:svgjs="http://svgjs.dev/svgjs" viewBox="0 0 1920 1080"><rect width="1920" height="1080" fill="#dde2fd"></rect><g transform="matrix(0.8131727983645296,0.8131727983645295,-0.8131727983645295,0.8131727983645296,614.159631027929,-661.0093549447765)"><path d="M0,-1080C9.738110354832505,-995.5797515256285,66.07425867507408,-759.3897029018303,58.42866212899503,-573.4785091537706C50.783065582915974,-387.5673154057108,-40.79963772492366,-145.83884360250252,-45.87357927647433,35.46716248835827C-50.947520828025,216.77316857921906,25.529217879934496,330.7927274569113,27.985012819691036,514.3575273913941C30.440807759447576,697.922327325877,-20.22031503727671,962.6340819787252,-31.138809637935086,1136.8559620952553C-42.05730423859346,1311.0778422117855,-42.71575639058174,1389.1648017731175,-37.52595478425923,1559.6888080905749C-32.336153177936716,1730.2128144080323,-6.254325797376538,2059.9481346817624,0,2160L 1920 2160 L 1920 -1080 Z" fill="url(&quot;#SvgjsLinearGradient1805&quot;)"></path><path d="M160,-1080C156.06362782270438,-992.4072773404176,139.05244654206788,-714.5871185502426,136.3817669362262,-554.4436640425056C133.71108733038452,-394.30020953476856,138.961237582982,-262.5038255243835,143.97592236494984,-119.13927295357783C148.99060714691768,24.22527961722787,160.66123455632092,149.28534855880545,166.4698756280332,305.74365138232866C172.2785166997455,462.20195420585185,176.6240880514532,666.7699922618444,178.82776879522356,819.6105439875614C181.0314495389939,972.4510957132784,189.7822479343812,1071.2167470074146,179.69196009065536,1222.7869617366302C169.60167224692952,1374.357176465846,121.56803508131118,1572.8296593189598,118.28604173286863,1729.0318323628549C115.00404838442607,1885.23400540675,153.04767362214477,2088.171972060476,160,2160L 1920 2160 L 1920 -1080 Z" fill="url(&quot;#SvgjsLinearGradient1806&quot;)"></path><path d="M320,-1080C311.2840758214997,-981.5149285637619,263.36912620420105,-708.1104860920909,267.7044549289982,-489.0895713825717C272.0397836537953,-270.0686566730525,340.45967793809785,1.5099870424497794,346.011972348783,234.12548825711508C351.5642667594681,466.7409894717804,295.3582334100471,689.2809486145608,301.01822139310894,906.60343590542C306.6782093761708,1123.9259231962792,376.80827047933894,1329.160984653174,379.9719002471541,1538.0604120022706C383.1355300149693,1746.9598393513672,329.99531670785905,2056.3434020003783,320,2160L 1920 2160 L 1920 -1080 Z" fill="url(&quot;#SvgjsLinearGradient1807&quot;)"></path><path d="M480,-1080C487.4114858895019,-1019.7406721647392,516.1657769571057,-854.8189859898644,524.4689153370111,-718.4440329884354C532.7720537169166,-582.0690799870065,528.5336227336784,-413.7814908718533,529.8188302794325,-261.7502819914265C531.1040378251867,-109.71907311099972,548.8203555596602,68.55292003430826,532.1801606115362,193.74322029412534C515.5399656634121,318.9335205539424,430.726758350026,359.3427325822555,429.9776605906883,489.3915195674759C429.2285628313506,619.4403065526963,516.2773098503799,832.0792363539028,527.6855740555101,974.0359422054476C539.0938382606403,1115.9926480569923,513.9421544172911,1206.5140714011595,498.4272458214696,1341.1317546767443C482.9123372256482,1475.7494379523291,437.6673301174929,1645.264000971747,434.5961224805813,1781.7420418589563C431.5249148436697,1918.2200827461656,472.4326870800969,2096.9570069764927,480,2160L 1920 2160 L 1920 -1080 Z" fill="url(&quot;#SvgjsLinearGradient1808&quot;)"></path><path d="M640,-1080C642.4388899727381,-940.8405436579866,654.278166480279,-512.4379870471978,654.6333398364291,-245.0432619479197C654.9885131925791,22.35146315135836,638.9433766091511,259.1607056117723,642.1310401369008,524.3683505956684C645.3187036646505,789.5759955795645,674.1144943590771,1073.597333054735,673.759321002927,1346.2026079554569C673.4041476467769,1618.8078828561788,645.6265535004878,2024.3671013259095,640,2160L 1920 2160 L 1920 -1080 Z" fill="url(&quot;#SvgjsLinearGradient1809&quot;)"></path><path d="M800,-1080C801.0958886014723,-1013.2040898463367,814.9241770453937,-815.5018035062946,806.5753316088342,-679.2245390780205C798.2264861722747,-542.9472746497464,744.7071569994488,-389.0079291943892,749.9069273806429,-262.3364134303558C755.1066977618369,-135.66489766632236,820.3669934302106,-48.92341913498544,837.7739538959988,80.80455550618001C855.180914361787,210.53253014734545,863.0118981107603,378.0842880820619,854.3486901753723,516.0314344166368C845.6854822399844,653.9785807512117,796.0314418628675,767.8882846180222,785.7947062836708,908.4874335136292C775.5579707044742,1049.0865824092361,781.4983798570938,1221.5026363493193,792.9282767001928,1359.6263277902788C804.3581735432917,1497.7500192312382,853.1954667922969,1603.8339701244324,854.3740873422647,1737.229582159386C855.5527078922325,1870.6251941943394,809.0623478903774,2089.538263693231,800,2160L 1920 2160 L 1920 -1080 Z" fill="url(&quot;#SvgjsLinearGradient1810&quot;)"></path><path d="M960,-1080C950.6696616435114,-997.9491588843206,904.7922555346594,-742.110113895322,904.0179698610683,-587.6949533059234C903.2436841874772,-433.27979271652475,948.7823944283078,-294.9949683699499,955.3542859584536,-153.50903646360848C961.9261774885994,-12.023104557267033,938.2364814288972,115.98601026797931,943.4493190419428,261.2206381321254C948.6621566549884,406.45526599627146,975.396906647647,555.8448843958581,986.631311636727,717.8987307212678C997.865716625807,879.9525770466776,1024.6645347836234,1076.541418718304,1010.8557489764224,1233.5437160845836C997.0469631692215,1390.5460134508633,912.2545549562585,1505.5031342663763,903.7785967935214,1659.9125149189456C895.3026386307843,1814.321895571515,950.6297661322535,2076.652085819824,960,2160L 1920 2160 L 1920 -1080 Z" fill="url(&quot;#SvgjsLinearGradient1811&quot;)"></path><path d="M1120,-1080C1114.261068251143,-1008.2070642420845,1084.8506086772009,-790.5287608216655,1085.5664095068576,-649.2423854525067C1086.2822103365143,-507.9560100833479,1119.458949995667,-353.3024847577569,1124.2948049779395,-232.28174778504734C1129.1306599602121,-111.26101081233782,1125.081042644983,-47.17736441739254,1114.5815394004926,76.88203638375047C1104.0820361560022,200.9414371848935,1053.7524990901752,370.41927579342456,1061.2977855109973,512.0746570218108C1068.8430719318194,653.7300382501971,1144.5464719479749,792.6461334167386,1159.8532579254256,926.814323754068C1175.1600439028764,1060.9825140913974,1166.0965995730264,1172.4806727084738,1153.1385013757022,1317.0837990457871C1140.180403178378,1461.6869253831005,1087.6277523040976,1653.9470482855788,1082.1046687414805,1794.4330817779476C1076.5815851788634,1934.9191152703163,1113.6841114569133,2099.0721802963244,1120,2160L 1920 2160 L 1920 -1080 Z" fill="url(&quot;#SvgjsLinearGradient1812&quot;)"></path><path d="M1280,-1080C1274.458645500587,-976.8094115594961,1237.9090189747617,-670.271084582242,1246.7518730035215,-460.8564693569764C1255.5947270322813,-251.4418541317108,1329.8210769725533,-49.36859208935414,1333.057124172559,176.48769135159338C1336.2931713725648,402.3439747925409,1275.4715206705837,670.4808780708097,1266.1681562035562,894.2812312887086C1256.8647917365288,1118.0815845066074,1274.9316300709866,1308.3366825404382,1277.236937370394,1519.2898106589869C1279.5422446698012,1730.2429387775355,1279.5394895617324,2053.2149684431643,1280,2160L 1920 2160 L 1920 -1080 Z" fill="url(&quot;#SvgjsLinearGradient1813&quot;)"></path><path d="M1440,-1080C1442.9993211049307,-988.2594854118292,1457.5995522985088,-702.7911298709092,1457.995926629584,-529.5569124709752C1458.392300960659,-356.32269507104127,1442.540264052981,-228.61889499720283,1442.3782459864508,-40.59469560039626C1442.2162279199206,147.42950379641033,1464.2555766850567,405.72040011351146,1457.0238182304024,598.5882839098641C1449.7920597757482,791.4561677062168,1407.3309207458358,937.806186769189,1398.9876952585253,1116.6126071777194C1390.6444697712147,1295.4190275862497,1400.1290811829601,1497.5289075573328,1406.9644653065393,1671.4268063610461C1413.7998494301185,1845.3247051647595,1434.49407755109,2078.5711343935077,1440,2160L 1920 2160 L 1920 -1080 Z" fill="url(&quot;#SvgjsLinearGradient1814&quot;)"></path><path d="M1600,-1080C1595.2766620780692,-941.7418863973415,1578.1842661057678,-526.7778517557734,1571.6599724684152,-250.45131838404942C1565.1356788310625,25.875214987674582,1560.6459842943366,317.85887188192623,1560.854238175884,577.9592002303439C1561.0624920574312,838.0595285787615,1566.3852021203459,1046.4771850781804,1572.9094957576986,1310.1506517064563C1579.4337893950512,1573.8241183347322,1595.4849159596165,2018.358441951076,1600,2160L 1920 2160 L 1920 -1080 Z" fill="url(&quot;#SvgjsLinearGradient1815&quot;)"></path><path d="M1760,-1080C1761.8683915380561,-979.8205537660505,1771.980136321999,-687.5775414143204,1771.2103492283366,-478.9233225963031C1770.440562134674,-270.26910377828574,1761.4792272832888,-49.127783168449355,1755.3812774380258,171.92531290810396C1749.2833275927628,392.9784089846573,1728.3608377921298,633.7483672699879,1734.6226501567587,847.3952538630169C1740.8844625213876,1061.0421404560461,1788.7225933185925,1235.0391747767815,1792.9521516257994,1453.8066324662786C1797.1817099330062,1672.5740901557758,1765.4920252709667,2042.3011054110464,1760,2160L 1920 2160 L 1920 -1080 Z" fill="url(&quot;#SvgjsLinearGradient1816&quot;)"></path></g><defs><linearGradient x1="0.1" y1="0" x2="0" y2="1" id="SvgjsLinearGradient1805"><stop stop-color="#dde2fd" offset="0"></stop><stop stop-color="#dde7fd" offset="0"></stop></linearGradient><linearGradient x1="0.1" y1="0" x2="0" y2="1" id="SvgjsLinearGradient1806"><stop stop-color="#b9c3fb" offset="0"></stop><stop stop-color="#b9cefb" offset="0.08333333333333333"></stop></linearGradient><linearGradient x1="0.1" y1="0" x2="0" y2="1" id="SvgjsLinearGradient1807"><stop stop-color="#95a5f9" offset="0"></stop><stop stop-color="#95b6f9" offset="0.16666666666666666"></stop></linearGradient><linearGradient x1="0.1" y1="0" x2="0" y2="1" id="SvgjsLinearGradient1808"><stop stop-color="#7186f7" offset="0"></stop><stop stop-color="#719cf7" offset="0.25"></stop></linearGradient><linearGradient x1="0.1" y1="0" x2="0" y2="1" id="SvgjsLinearGradient1809"><stop stop-color="#4e68f5" offset="0"></stop><stop stop-color="#4e84f5" offset="0.3333333333333333"></stop></linearGradient><linearGradient x1="0.1" y1="0" x2="0" y2="1" id="SvgjsLinearGradient1810"><stop stop-color="#2a49f2" offset="0"></stop><stop stop-color="#2a6af2" offset="0.4166666666666667"></stop></linearGradient><linearGradient x1="0.1" y1="0" x2="0" y2="1" id="SvgjsLinearGradient1811"><stop stop-color="#0e30e9" offset="0"></stop><stop stop-color="#0e54e9" offset="0.5"></stop></linearGradient><linearGradient x1="0.1" y1="0" x2="0" y2="1" id="SvgjsLinearGradient1812"><stop stop-color="#0c29c5" offset="0"></stop><stop stop-color="#0c48c5" offset="0.5833333333333334"></stop></linearGradient><linearGradient x1="0.1" y1="0" x2="0" y2="1" id="SvgjsLinearGradient1813"><stop stop-color="#0921a1" offset="0"></stop><stop stop-color="#093aa1" offset="0.6666666666666666"></stop></linearGradient><linearGradient x1="0.1" y1="0" x2="0" y2="1" id="SvgjsLinearGradient1814"><stop stop-color="#071a7d" offset="0"></stop><stop stop-color="#072e7d" offset="0.75"></stop></linearGradient><linearGradient x1="0.1" y1="0" x2="0" y2="1" id="SvgjsLinearGradient1815"><stop stop-color="#051259" offset="0"></stop><stop stop-color="#052059" offset="0.8333333333333334"></stop></linearGradient><linearGradient x1="0.1" y1="0" x2="0" y2="1" id="SvgjsLinearGradient1816"><stop stop-color="#030b36" offset="0"></stop><stop stop-color="#031336" offset="0.9166666666666666"></stop></linearGradient></defs></svg>