<svg xmlns="http://www.w3.org/2000/svg" version="1.1" xmlns:xlink="http://www.w3.org/1999/xlink" xmlns:svgjs="http://svgjs.dev/svgjs" viewBox="0 0 1920 1080"><rect width="1920" height="1080" fill="#99c0ff"></rect><g transform="matrix(-2.112515728529184e-16,-1.15,1.15,-2.112515728529184e-16,303.86270141601585,1603.5921066284182)"><path d="M0,-1080C2.3459134222343416,-968.52871024241,22.764852911760606,-624.4579973731188,14.07548053340605,-411.1722614544604C5.386108155051497,-197.88652553580192,-50.90714743276952,-20.363968180575938,-52.13623427012732,199.7144155119509C-53.365321107485116,419.7927992044778,9.721435682577733,694.2093006726518,6.700959509259263,909.2980407007008C3.6804833359407945,1124.3867807287497,-69.14226472516158,1281.7965291303615,-70.25909131003813,1490.2468556802446C-71.37591789491468,1698.6971822301277,-11.709848551673021,2048.374475946707,0,2160L 1920 2160 L 1920 -1080 Z" fill="url(&quot;#SvgjsLinearGradient1882&quot;)"></path><path d="M192,-1080C198.05279931420284,-977.8377302584526,235.26203920994377,-650.936449642968,228.3167958852171,-467.0263815507152C221.37155256049041,-283.1163134584624,146.1739892996074,-146.06286545851464,150.32854005164,23.460408553516984C154.4830908036726,192.98368256554858,237.20243057893518,382.08841229545123,253.24410039741264,550.1132625214744C269.28577021589007,718.1381127474976,268.83124864891784,848.5638263295216,246.57855896250473,1031.6095099096565C224.32586927609165,1214.6551934897914,128.82438877268496,1460.3222823205597,119.72796227893416,1648.3873640022837C110.63153578518337,1836.4524456840077,179.95466037982237,2074.731227333714,192,2160L 1920 2160 L 1920 -1080 Z" fill="url(&quot;#SvgjsLinearGradient1883&quot;)"></path><path d="M384,-1080C396.1101116055136,-935.9389845647426,466.70219585043276,-477.9479361138749,456.66066963308185,-215.6339073884551C446.61914341573095,46.6801213369647,337.96928331931207,234.5415129105849,323.75084269589456,493.8841723525188C309.53240207247705,753.2268317944527,361.3084996752258,1062.736077988568,371.3500258925767,1340.4220492631482C381.3915521099276,1618.1080205377284,381.8916709820961,2023.4036748771914,384,2160L 1920 2160 L 1920 -1080 Z" fill="url(&quot;#SvgjsLinearGradient1884&quot;)"></path><path d="M576,-1080C584.2460381777883,-989.1135129061648,634.0839062466548,-719.8669712351052,625.4762290667295,-534.6810774369892C616.8685518868042,-349.4951836388732,525.2111249306294,-149.46953987440065,524.3539369204478,31.115362788696274C523.4967489102663,211.7002654517932,618.9995611067142,378.94237323908123,620.3331010056403,548.8283385415923C621.6666409045664,718.7143038441034,541.5976202104039,874.011195443681,532.3551763140046,1050.4311546037625C523.1127324176052,1226.851113763844,557.6043003462455,1422.4199526027085,564.8784376272447,1607.3480935020814C572.1525749082439,1792.2762344014543,574.1464062712074,2067.8913489170136,576,2160L 1920 2160 L 1920 -1080 Z" fill="url(&quot;#SvgjsLinearGradient1885&quot;)"></path><path d="M768,-1080C759.2497846494025,-1017.5278321831471,725.0104706426171,-837.3010927025175,715.4987078964152,-705.1669930988826C705.9869451502134,-573.0328934952477,712.1150968134641,-422.0145041072231,710.9294235227887,-287.1954023781905C709.7437502321134,-152.37630064915794,706.1979655758755,-31.268908086545792,708.3846681523634,103.74761727531293C710.5713707288512,238.76414263717166,710.4379023639594,384.2395412317338,724.049638981716,522.9037497929619C737.6613755994726,661.56795835419,775.8061325886717,797.0625520565037,790.0550878589027,935.7328686426814C804.3040431291336,1074.403185228859,810.4517552874206,1218.4777098859201,809.5433706031017,1354.9256493100281C808.6349859187828,1491.373588734136,791.5286748535061,1620.2414467390008,784.6047797529892,1754.4205051873296C777.6808846524723,1888.5995636356583,770.7674632921648,2092.4034175312217,768,2160L 1920 2160 L 1920 -1080 Z" fill="url(&quot;#SvgjsLinearGradient1886&quot;)"></path><path d="M960,-1080C955.1888125210742,-1014.4183905246573,941.7445770892143,-842.4756914758763,931.1328751264449,-686.510343147944C920.5211731636755,-530.5449948200118,892.7177661216472,-313.2982117820668,896.3297882233836,-144.20791003240635C899.9418103251201,24.88239171725408,948.9225195587077,171.98589798151804,952.8050077368632,328.0314673500186C956.6874959150188,484.07703671851914,928.8007398686275,640.6468764903518,919.6247172923171,792.0655061785972C910.4486947160067,943.4841358668425,888.8795651602638,1085.398510169913,897.7488722790006,1236.5432454794907C906.6181793977373,1387.6879807890684,962.4653720512375,1545.0244589493122,972.8405600047374,1698.933918036064C983.2157479582373,1852.8433771228156,962.1400933341229,2083.1556530060107,960,2160L 1920 2160 L 1920 -1080 Z" fill="url(&quot;#SvgjsLinearGradient1887&quot;)"></path><path d="M1152,-1080C1159.4937085967858,-992.9505797769975,1193.0108355286989,-721.1691264548923,1196.962251580715,-557.703478661985C1200.9136676327312,-394.2378308690776,1194.6311495578077,-246.18368198325302,1175.7084963120974,-99.20611324255597C1156.785843066387,47.77145549814108,1083.0018998479345,174.66730810324646,1083.4263321064532,324.1619337821974C1083.8507643649718,473.6565594611484,1164.0640026428155,641.9085008873516,1178.2550898632092,797.7616408311499C1192.4461770836028,953.6147807749481,1180.5748694807958,1108.3671442199943,1168.5728554288146,1259.2807734449868C1156.5708413768334,1410.1944026699794,1109.0051481227915,1553.1235450886024,1106.2430055513223,1703.2434161811045C1103.480862979853,1853.3632872736066,1144.3738342585536,2083.8739026968506,1152,2160L 1920 2160 L 1920 -1080 Z" fill="url(&quot;#SvgjsLinearGradient1888&quot;)"></path><path d="M1344,-1080C1332.9977544527092,-934.3567512719145,1284.310994751307,-469.0422215240235,1277.9865267162545,-206.14050763148694C1271.662058681202,56.76120626104958,1301.6367137332331,237.0124683393978,1306.0531917896853,497.410283355219C1310.4696698461375,757.8080983710402,1298.1609270199156,1079.1480963559768,1304.485395054968,1356.2463824634403C1310.8098630900204,1633.3446685709039,1337.4142325091614,2026.0410637439068,1344,2160L 1920 2160 L 1920 -1080 Z" fill="url(&quot;#SvgjsLinearGradient1889&quot;)"></path><path d="M1536,-1080C1539.3368817786204,-1016.0601569369187,1546.2396657197978,-828.0641528184658,1556.0212906717222,-696.3609416215126C1565.8029156236466,-564.6577304245593,1603.2950372320252,-427.9979341709435,1594.6897497115458,-289.7807328182802C1586.0844621910665,-151.563531465617,1524.4764829389549,-12.895912561159491,1504.389565548846,132.94226649446685C1484.302648158737,278.7804455500932,1468.0728959899745,453.9606357282056,1474.168245370892,585.2483415154777C1480.2635947518095,716.5360473027498,1522.769189969328,786.4237933292549,1540.9616618343505,920.6685012180992C1559.154133699373,1054.9132091069437,1577.6001886635238,1247.5256845453337,1583.3230765610276,1390.7165888485438C1589.0459644585314,1533.907493151754,1583.186168646211,1651.600025178784,1575.298989219373,1779.8139270373601C1567.411809792535,1908.0278288959362,1542.5498315365621,2096.6356545062267,1536,2160L 1920 2160 L 1920 -1080 Z" fill="url(&quot;#SvgjsLinearGradient1890&quot;)"></path><path d="M1728,-1080C1736.0825928211923,-939.1509599129163,1765.5766356543954,-493.1591236214477,1776.495556927154,-234.905759477498C1787.4144781999125,23.347604666451673,1805.8777235621055,206.43132890650264,1793.5135276365509,469.5201848636981C1781.1493317109962,732.6090408208936,1713.229302646585,1061.8807404096244,1702.3103813738264,1343.6273762656747C1691.3914601010679,1625.374012121725,1723.7183968956379,2023.9378960442791,1728,2160L 1920 2160 L 1920 -1080 Z" fill="url(&quot;#SvgjsLinearGradient1891&quot;)"></path></g><defs><linearGradient x1="0.1" y1="0" x2="0" y2="1" id="SvgjsLinearGradient1882"><stop stop-color="#99c0ff" offset="0"></stop><stop stop-color="#99d1ff" offset="0"></stop></linearGradient><linearGradient x1="0.1" y1="0" x2="0" y2="1" id="SvgjsLinearGradient1883"><stop stop-color="#73a9ff" offset="0"></stop><stop stop-color="#73c0ff" offset="0.1"></stop></linearGradient><linearGradient x1="0.1" y1="0" x2="0" y2="1" id="SvgjsLinearGradient1884"><stop stop-color="#4e92ff" offset="0"></stop><stop stop-color="#4eafff" offset="0.2"></stop></linearGradient><linearGradient x1="0.1" y1="0" x2="0" y2="1" id="SvgjsLinearGradient1885"><stop stop-color="#287aff" offset="0"></stop><stop stop-color="#289eff" offset="0.3"></stop></linearGradient><linearGradient x1="0.1" y1="0" x2="0" y2="1" id="SvgjsLinearGradient1886"><stop stop-color="#0363ff" offset="0"></stop><stop stop-color="#038dff" offset="0.4"></stop></linearGradient><linearGradient x1="0.1" y1="0" x2="0" y2="1" id="SvgjsLinearGradient1887"><stop stop-color="#0054dc" offset="0"></stop><stop stop-color="#0079dc" offset="0.5"></stop></linearGradient><linearGradient x1="0.1" y1="0" x2="0" y2="1" id="SvgjsLinearGradient1888"><stop stop-color="#0046b7" offset="0"></stop><stop stop-color="#0064b7" offset="0.6"></stop></linearGradient><linearGradient x1="0.1" y1="0" x2="0" y2="1" id="SvgjsLinearGradient1889"><stop stop-color="#003891" offset="0"></stop><stop stop-color="#005091" offset="0.7"></stop></linearGradient><linearGradient x1="0.1" y1="0" x2="0" y2="1" id="SvgjsLinearGradient1890"><stop stop-color="#00296c" offset="0"></stop><stop stop-color="#003b6c" offset="0.8"></stop></linearGradient><linearGradient x1="0.1" y1="0" x2="0" y2="1" id="SvgjsLinearGradient1891"><stop stop-color="#001b46" offset="0"></stop><stop stop-color="#002746" offset="0.9"></stop></linearGradient></defs></svg>