<svg xmlns="http://www.w3.org/2000/svg" version="1.1" xmlns:xlink="http://www.w3.org/1999/xlink" xmlns:svgjs="http://svgjs.dev/svgjs" viewBox="0 0 1920 1080"><rect width="1920" height="1080" fill="#498fbc"></rect><g transform="matrix(0.8131727983645296,0.8131727983645295,-0.8131727983645295,0.8131727983645296,610.4016557178286,-644.6526184934023)"><path d="M0,-1080C-3.2982905886736993,-997.379828378869,-7.1030037814084395,-725.2523926712815,-19.789743532042195,-584.2789702732136C-32.47648328267595,-443.30554787514575,-67.27226630875435,-385.8607417339015,-76.12043850380253,-234.1594656115925C-84.96861069885071,-82.45818948928357,-95.2367236236845,158.49417556982291,-72.87877670233122,325.92868646064C-50.52082978097795,493.3631973514571,38.787071135079074,609.5834987410168,58.0272430243171,770.44759973331C77.26741491355513,931.3117007256031,62.527143675450134,1147.0087948942573,42.56225463309693,1291.113292414399C22.597365590743724,1435.2177899345406,-54.668382124285955,1490.260133589893,-61.76209122980211,1635.0745848541599C-68.85580033531826,1779.8890361184267,-10.293681871633686,2072.5124308090267,0,2160L 1920 2160 L 1920 -1080 Z" fill="url(&quot;#SvgjsLinearGradient1152&quot;)"></path><path d="M213.33333333333331,-1080C202.71670102344575,-996.192530638323,156.15530296678656,-730.5085677762765,149.63353947400793,-577.155183829938C143.1117759812293,-423.8017998835994,161.0178439945414,-315.1529421491979,174.20275237666155,-159.8796963219683C187.3876607587817,-4.606450494738709,211.59385375968932,205.5424758463688,228.7429897667287,354.4842911334397C245.89212577376807,503.42610642051056,278.3090221806144,575.6850547095636,277.0975684188978,733.7711954004569C275.8861146571812,891.8573360913502,233.9728825095731,1143.8434100346574,221.4742671964292,1303.0011352787994C208.97565188328528,1462.1588605229415,203.4626988505503,1545.8844027451091,202.10587654003433,1688.7175468653093C200.74905422951835,1831.5506909855094,211.46209053445014,2081.4529244775517,213.33333333333331,2160L 1920 2160 L 1920 -1080 Z" fill="url(&quot;#SvgjsLinearGradient1153&quot;)"></path><path d="M426.66666666666663,-1080C432.4803969228529,-932.5058399972135,461.264389767914,-471.70908961654385,461.5490482037841,-195.03503998328046C461.83370663965417,81.63900964998294,437.0548539347128,317.29855919300695,428.37461728188714,580.0442977995802C419.69438062906147,842.7900364061536,409.7522867227,1118.1134412894226,409.4676282868299,1381.4393916561592C409.1829698509598,1644.7653420228958,423.80016027002716,2030.23989860936,426.66666666666663,2160L 1920 2160 L 1920 -1080 Z" fill="url(&quot;#SvgjsLinearGradient1154&quot;)"></path><path d="M640,-1080C638.4554348088228,-979.1442531805827,625.8468030654311,-652.890099477669,630.7326088529368,-474.86551908349657C635.6184146404424,-296.84093868932416,658.4702781019439,-190.44933718843313,669.3148347250338,-11.852517634965267C680.1593913481238,166.7443019185026,696.5467336882584,402.41528998980846,695.7999485914761,596.7153982373108C695.0531634946938,791.015506484813,662.6527197393159,978.8578296425759,664.8341241443397,1153.9481318500486C667.0155285493636,1329.0384340575215,713.0273957123422,1479.5819001238224,708.8883750216189,1647.2572114821476C704.7493543308956,1814.9325228404728,651.4813958369365,2074.542868580358,640,2160L 1920 2160 L 1920 -1080 Z" fill="url(&quot;#SvgjsLinearGradient1155&quot;)"></path><path d="M853.3333333333333,-1080C856.0277267533569,-952.3465301561022,882.9845664946915,-590.5650611127471,869.4996938534748,-314.0791809366129C856.0148212122581,-37.593300760478655,766.6375428298176,298.6046843024641,772.424097486033,578.9152810568055C778.2106521422485,859.2258778111469,890.7341491495506,1104.27027976557,904.2190217907673,1367.7843995894357C917.703894431984,1631.2985194133014,861.8142814095722,2027.9640665982392,853.3333333333333,2160L 1920 2160 L 1920 -1080 Z" fill="url(&quot;#SvgjsLinearGradient1156&quot;)"></path><path d="M1066.6666666666667,-1080C1073.3182688720995,-999.4246729605638,1119.5778457853808,-773.7990090402709,1106.5762798992625,-596.5480377633833C1093.5747140131443,-419.2970664864956,995.1085808781677,-195.19532012394512,988.6572713499576,-16.494172338674147C982.2059618217475,162.20697544659686,1055.987611926049,289.89667566980665,1067.868422730002,475.65884894824273C1079.749233533955,661.4210222266788,1065.8679019177898,912.6532726055436,1059.9421361736747,1098.078867331942C1054.0163704295596,1283.5044620583406,1031.1930731831467,1411.225561861957,1032.313828265312,1588.2124173066334C1033.4345833474772,1765.1992727513098,1060.9411935997744,2064.7020695511055,1066.6666666666667,2160L 1920 2160 L 1920 -1080 Z" fill="url(&quot;#SvgjsLinearGradient1157&quot;)"></path><path d="M1280,-1080C1281.830346646398,-1000.9974421603891,1290.1078104834908,-755.3043937560642,1290.982079878388,-605.9846529623348C1291.8563492732853,-456.6649121686055,1293.8592520874404,-336.6453026915956,1285.245616369384,-184.08155523762375C1276.6319806513275,-31.517807783651904,1233.3169494422255,136.96471397840705,1239.3002655700486,309.39783176149626C1245.2835816978718,481.83094954458545,1312.3874078936053,694.2219297233065,1321.1455131363223,850.5171514609116C1329.9036183790392,1006.8123731985166,1294.6573119600669,1113.9764832128992,1291.8488970263509,1247.1691621871264C1289.0404820926349,1380.3618411613536,1306.2698397050845,1497.5347523374626,1304.295023534026,1649.6732253062748C1302.3202073629677,1801.811698275087,1284.0491705890045,2074.9455375510456,1280,2160L 1920 2160 L 1920 -1080 Z" fill="url(&quot;#SvgjsLinearGradient1158&quot;)"></path><path d="M1493.3333333333333,-1080C1491.1188413180148,-1001.8199467583377,1490.3279271019112,-735.3407102012827,1480.0463812414232,-610.9196805500258C1469.7648353809352,-486.4986508987688,1429.165260429636,-452.8241542096394,1431.6440581704057,-333.4738220924583C1434.1228559111755,-214.1234899752772,1485.0162735157808,-28.27747502765294,1494.9191676860426,105.18231215306068C1504.8220618563043,238.6420993337743,1480.151123725421,340.6117712361432,1491.0614231919767,467.2849009918233C1501.9717226585324,593.9580307475034,1567.921618154539,727.8006044400183,1560.380964485377,865.2210906871411C1552.8403108162152,1002.6415769342639,1449.7691454319554,1131.0430819690682,1445.8175011770056,1291.8078184745596C1441.8658569220559,1452.5725549800509,1528.7517935962908,1685.110812799182,1536.6710989556786,1829.8095097200887C1544.5904043150665,1974.5082066409955,1500.556294270391,2104.9682516200146,1493.3333333333333,2160L 1920 2160 L 1920 -1080 Z" fill="url(&quot;#SvgjsLinearGradient1159&quot;)"></path><path d="M1706.6666666666665,-1080C1716.467842387223,-932.9979293048444,1778.9658385755415,-468.8307013256322,1765.473720990006,-197.98757582906688C1751.9816034044707,72.85554966749845,1643.4690729110669,276.26009972595335,1625.7139611534546,545.058752979392C1607.9588493958424,813.8574062328307,1645.4509328587978,1145.6474691881303,1658.943050444333,1414.804343691565C1672.4351680298682,1683.9612181949997,1698.7127306296109,2035.8007239485942,1706.6666666666665,2160L 1920 2160 L 1920 -1080 Z" fill="url(&quot;#SvgjsLinearGradient1160&quot;)"></path></g><defs><linearGradient x1="0.1" y1="0" x2="0" y2="1" id="SvgjsLinearGradient1152"><stop stop-color="#498fbc" offset="0"></stop><stop stop-color="#49a2bc" offset="0"></stop></linearGradient><linearGradient x1="0.1" y1="0" x2="0" y2="1" id="SvgjsLinearGradient1153"><stop stop-color="#5e9cc4" offset="0"></stop><stop stop-color="#5eadc4" offset="0.1111111111111111"></stop></linearGradient><linearGradient x1="0.1" y1="0" x2="0" y2="1" id="SvgjsLinearGradient1154"><stop stop-color="#73a9cb" offset="0"></stop><stop stop-color="#73b8cb" offset="0.2222222222222222"></stop></linearGradient><linearGradient x1="0.1" y1="0" x2="0" y2="1" id="SvgjsLinearGradient1155"><stop stop-color="#87b5d3" offset="0"></stop><stop stop-color="#87c2d3" offset="0.3333333333333333"></stop></linearGradient><linearGradient x1="0.1" y1="0" x2="0" y2="1" id="SvgjsLinearGradient1156"><stop stop-color="#9cc2db" offset="0"></stop><stop stop-color="#9cccdb" offset="0.4444444444444444"></stop></linearGradient><linearGradient x1="0.1" y1="0" x2="0" y2="1" id="SvgjsLinearGradient1157"><stop stop-color="#b1cfe2" offset="0"></stop><stop stop-color="#b1d7e2" offset="0.5555555555555556"></stop></linearGradient><linearGradient x1="0.1" y1="0" x2="0" y2="1" id="SvgjsLinearGradient1158"><stop stop-color="#c6dcea" offset="0"></stop><stop stop-color="#c6e2ea" offset="0.6666666666666666"></stop></linearGradient><linearGradient x1="0.1" y1="0" x2="0" y2="1" id="SvgjsLinearGradient1159"><stop stop-color="#dae8f1" offset="0"></stop><stop stop-color="#daecf1" offset="0.7777777777777778"></stop></linearGradient><linearGradient x1="0.1" y1="0" x2="0" y2="1" id="SvgjsLinearGradient1160"><stop stop-color="#eff5f9" offset="0"></stop><stop stop-color="#eff7f9" offset="0.8888888888888888"></stop></linearGradient></defs></svg>